<svg xmlns="http://www.w3.org/2000/svg" width="512" height="512" viewBox="0 0 512 512"><g id="Group_1" data-name="Group 1" transform="translate(-14 -625)"><rect id="Rectangle_1" data-name="Rectangle 1" width="512" height="512" transform="translate(14 625)" fill="#fddb00"></rect><rect id="Rectangle_4" data-name="Rectangle 4" width="512" height="512" transform="translate(14 625)" fill="#fddb00"></rect><path id="Rectangle_5" data-name="Rectangle 5" d="M0,0H228a0,0,0,0,1,0,0V81a0,0,0,0,1,0,0H10A10,10,0,0,1,0,71V0A0,0,0,0,1,0,0Z" transform="translate(109.752 939.472) rotate(-45)" fill="#7323dc"></path><path id="Rectangle_3" data-name="Rectangle 3" d="M10,0H228a0,0,0,0,1,0,0V81a0,0,0,0,1,0,0H0a0,0,0,0,1,0,0V10A10,10,0,0,1,10,0Z" transform="translate(374.972 996.748) rotate(-135)" fill="#7323dc"></path><path id="Rectangle_6" data-name="Rectangle 6" d="M10,0H228a0,0,0,0,1,0,0V81a0,0,0,0,1,0,0H0a0,0,0,0,1,0,0V10A10,10,0,0,1,10,0Z" transform="translate(374.972 996.748) rotate(-135)" fill="#7323dc"></path></g></svg>